<svg width="192" height="192" viewBox="0 0 192 192" fill="none" xmlns="http://www.w3.org/2000/svg">
<rect width="192" height="192" rx="96" fill="#11111C"/>
<path fill-rule="evenodd" clip-rule="evenodd" d="M32.7273 62.9602C32.7273 64.6139 31.3867 65.9546 29.733 65.9546C28.0792 65.9546 26.7386 64.6139 26.7386 62.9602C26.7386 61.3065 28.0792 59.9659 29.733 59.9659C31.3867 59.9659 32.7273 61.3065 32.7273 62.9602ZM41.0341 62.9602C41.0341 64.6139 39.6935 65.9546 38.0398 65.9546C36.3861 65.9546 35.0455 64.6139 35.0455 62.9602C35.0455 61.3065 36.3861 59.9659 38.0398 59.9659C39.6935 59.9659 41.0341 61.3065 41.0341 62.9602ZM46.3466 65.9546C48.0003 65.9546 49.3409 64.6139 49.3409 62.9602C49.3409 61.3065 48.0003 59.9659 46.3466 59.9659C44.6929 59.9659 43.3523 61.3065 43.3523 62.9602C43.3523 64.6139 44.6929 65.9546 46.3466 65.9546ZM57.6477 62.9602C57.6477 64.6139 56.3071 65.9546 54.6534 65.9546C52.9997 65.9546 51.6591 64.6139 51.6591 62.9602C51.6591 61.3065 52.9997 59.9659 54.6534 59.9659C56.3071 59.9659 57.6477 61.3065 57.6477 62.9602ZM62.9602 65.9546C64.6139 65.9546 65.9545 64.6139 65.9545 62.9602C65.9545 61.3065 64.6139 59.9659 62.9602 59.9659C61.3065 59.9659 59.9659 61.3065 59.9659 62.9602C59.9659 64.6139 61.3065 65.9546 62.9602 65.9546ZM24.4205 71.2671C24.4205 72.9208 23.0799 74.2614 21.4261 74.2614C19.7724 74.2614 18.4318 72.9208 18.4318 71.2671C18.4318 69.6133 19.7724 68.2727 21.4261 68.2727C23.0799 68.2727 24.4205 69.6133 24.4205 71.2671ZM29.733 74.2614C31.3867 74.2614 32.7273 72.9208 32.7273 71.2671C32.7273 69.6133 31.3867 68.2727 29.733 68.2727C28.0792 68.2727 26.7386 69.6133 26.7386 71.2671C26.7386 72.9208 28.0792 74.2614 29.733 74.2614ZM41.0341 71.2671C41.0341 72.9208 39.6935 74.2614 38.0398 74.2614C36.3861 74.2614 35.0455 72.9208 35.0455 71.2671C35.0455 69.6133 36.3861 68.2727 38.0398 68.2727C39.6935 68.2727 41.0341 69.6133 41.0341 71.2671ZM46.3466 74.2614C48.0003 74.2614 49.3409 72.9208 49.3409 71.2671C49.3409 69.6133 48.0003 68.2727 46.3466 68.2727C44.6929 68.2727 43.3523 69.6133 43.3523 71.2671C43.3523 72.9208 44.6929 74.2614 46.3466 74.2614ZM57.6477 71.2671C57.6477 72.9208 56.3071 74.2614 54.6534 74.2614C52.9997 74.2614 51.6591 72.9208 51.6591 71.2671C51.6591 69.6133 52.9997 68.2727 54.6534 68.2727C56.3071 68.2727 57.6477 69.6133 57.6477 71.2671ZM62.9602 74.2614C64.6139 74.2614 65.9545 72.9208 65.9545 71.2671C65.9545 69.6133 64.6139 68.2727 62.9602 68.2727C61.3065 68.2727 59.9659 69.6133 59.9659 71.2671C59.9659 72.9208 61.3065 74.2614 62.9602 74.2614ZM74.2614 71.2671C74.2614 72.9208 72.9208 74.2614 71.267 74.2614C69.6133 74.2614 68.2727 72.9208 68.2727 71.2671C68.2727 69.6133 69.6133 68.2727 71.267 68.2727C72.9208 68.2727 74.2614 69.6133 74.2614 71.2671ZM13.1193 99.1818C14.773 99.1818 16.1136 97.8412 16.1136 96.1875C16.1136 94.5338 14.773 93.1932 13.1193 93.1932C11.4656 93.1932 10.125 94.5338 10.125 96.1875C10.125 97.8412 11.4656 99.1818 13.1193 99.1818ZM24.4205 96.1875C24.4205 97.8412 23.0799 99.1818 21.4261 99.1818C19.7724 99.1818 18.4318 97.8412 18.4318 96.1875C18.4318 94.5338 19.7724 93.1932 21.4261 93.1932C23.0799 93.1932 24.4205 94.5338 24.4205 96.1875ZM29.733 99.1818C31.3867 99.1818 32.7273 97.8412 32.7273 96.1875C32.7273 94.5338 31.3867 93.1932 29.733 93.1932C28.0792 93.1932 26.7386 94.5338 26.7386 96.1875C26.7386 97.8412 28.0792 99.1818 29.733 99.1818ZM41.0341 96.1875C41.0341 97.8412 39.6935 99.1818 38.0398 99.1818C36.3861 99.1818 35.0455 97.8412 35.0455 96.1875C35.0455 94.5338 36.3861 93.1932 38.0398 93.1932C39.6935 93.1932 41.0341 94.5338 41.0341 96.1875ZM46.3466 99.1818C48.0003 99.1818 49.3409 97.8412 49.3409 96.1875C49.3409 94.5338 48.0003 93.1932 46.3466 93.1932C44.6929 93.1932 43.3523 94.5338 43.3523 96.1875C43.3523 97.8412 44.6929 99.1818 46.3466 99.1818ZM57.6477 96.1875C57.6477 97.8412 56.3071 99.1818 54.6534 99.1818C52.9997 99.1818 51.6591 97.8412 51.6591 96.1875C51.6591 94.5338 52.9997 93.1932 54.6534 93.1932C56.3071 93.1932 57.6477 94.5338 57.6477 96.1875ZM62.9602 99.1818C64.6139 99.1818 65.9545 97.8412 65.9545 96.1875C65.9545 94.5338 64.6139 93.1932 62.9602 93.1932C61.3065 93.1932 59.9659 94.5338 59.9659 96.1875C59.9659 97.8412 61.3065 99.1818 62.9602 99.1818ZM74.2614 96.1875C74.2614 97.8412 72.9208 99.1818 71.267 99.1818C69.6133 99.1818 68.2727 97.8412 68.2727 96.1875C68.2727 94.5338 69.6133 93.1932 71.267 93.1932C72.9208 93.1932 74.2614 94.5338 74.2614 96.1875ZM79.5739 99.1818C81.2276 99.1818 82.5682 97.8412 82.5682 96.1875C82.5682 94.5338 81.2276 93.1932 79.5739 93.1932C77.9201 93.1932 76.5795 94.5338 76.5795 96.1875C76.5795 97.8412 77.9201 99.1818 79.5739 99.1818ZM16.1136 104.494C16.1136 106.148 14.773 107.489 13.1193 107.489C11.4656 107.489 10.125 106.148 10.125 104.494C10.125 102.841 11.4656 101.5 13.1193 101.5C14.773 101.5 16.1136 102.841 16.1136 104.494ZM21.4261 107.489C23.0799 107.489 24.4205 106.148 24.4205 104.494C24.4205 102.841 23.0799 101.5 21.4261 101.5C19.7724 101.5 18.4318 102.841 18.4318 104.494C18.4318 106.148 19.7724 107.489 21.4261 107.489ZM32.7273 104.494C32.7273 106.148 31.3867 107.489 29.733 107.489C28.0792 107.489 26.7386 106.148 26.7386 104.494C26.7386 102.841 28.0792 101.5 29.733 101.5C31.3867 101.5 32.7273 102.841 32.7273 104.494ZM38.0398 107.489C39.6935 107.489 41.0341 106.148 41.0341 104.494C41.0341 102.841 39.6935 101.5 38.0398 101.5C36.3861 101.5 35.0455 102.841 35.0455 104.494C35.0455 106.148 36.3861 107.489 38.0398 107.489ZM49.3409 104.494C49.3409 106.148 48.0003 107.489 46.3466 107.489C44.6929 107.489 43.3523 106.148 43.3523 104.494C43.3523 102.841 44.6929 101.5 46.3466 101.5C48.0003 101.5 49.3409 102.841 49.3409 104.494ZM54.6534 107.489C56.3071 107.489 57.6477 106.148 57.6477 104.494C57.6477 102.841 56.3071 101.5 54.6534 101.5C52.9997 101.5 51.6591 102.841 51.6591 104.494C51.6591 106.148 52.9997 107.489 54.6534 107.489ZM65.9545 104.494C65.9545 106.148 64.6139 107.489 62.9602 107.489C61.3065 107.489 59.9659 106.148 59.9659 104.494C59.9659 102.841 61.3065 101.5 62.9602 101.5C64.6139 101.5 65.9545 102.841 65.9545 104.494ZM71.267 107.489C72.9208 107.489 74.2614 106.148 74.2614 104.494C74.2614 102.841 72.9208 101.5 71.267 101.5C69.6133 101.5 68.2727 102.841 68.2727 104.494C68.2727 106.148 69.6133 107.489 71.267 107.489ZM82.5682 104.494C82.5682 106.148 81.2276 107.489 79.5739 107.489C77.9201 107.489 76.5795 106.148 76.5795 104.494C76.5795 102.841 77.9201 101.5 79.5739 101.5C81.2276 101.5 82.5682 102.841 82.5682 104.494ZM13.1193 82.5682C14.773 82.5682 16.1136 81.2276 16.1136 79.5739C16.1136 77.9202 14.773 76.5796 13.1193 76.5796C11.4656 76.5796 10.125 77.9202 10.125 79.5739C10.125 81.2276 11.4656 82.5682 13.1193 82.5682ZM24.4205 79.5739C24.4205 81.2276 23.0799 82.5682 21.4261 82.5682C19.7724 82.5682 18.4318 81.2276 18.4318 79.5739C18.4318 77.9202 19.7724 76.5796 21.4261 76.5796C23.0799 76.5796 24.4205 77.9202 24.4205 79.5739ZM29.733 82.5682C31.3867 82.5682 32.7273 81.2276 32.7273 79.5739C32.7273 77.9202 31.3867 76.5796 29.733 76.5796C28.0792 76.5796 26.7386 77.9202 26.7386 79.5739C26.7386 81.2276 28.0792 82.5682 29.733 82.5682ZM41.0341 79.5739C41.0341 81.2276 39.6935 82.5682 38.0398 82.5682C36.3861 82.5682 35.0455 81.2276 35.0455 79.5739C35.0455 77.9202 36.3861 76.5796 38.0398 76.5796C39.6935 76.5796 41.0341 77.9202 41.0341 79.5739ZM46.3466 82.5682C48.0003 82.5682 49.3409 81.2276 49.3409 79.5739C49.3409 77.9202 48.0003 76.5796 46.3466 76.5796C44.6929 76.5796 43.3523 77.9202 43.3523 79.5739C43.3523 81.2276 44.6929 82.5682 46.3466 82.5682ZM57.6477 79.5739C57.6477 81.2276 56.3071 82.5682 54.6534 82.5682C52.9997 82.5682 51.6591 81.2276 51.6591 79.5739C51.6591 77.9202 52.9997 76.5796 54.6534 76.5796C56.3071 76.5796 57.6477 77.9202 57.6477 79.5739ZM62.9602 82.5682C64.6139 82.5682 65.9545 81.2276 65.9545 79.5739C65.9545 77.9202 64.6139 76.5796 62.9602 76.5796C61.3065 76.5796 59.9659 77.9202 59.9659 79.5739C59.9659 81.2276 61.3065 82.5682 62.9602 82.5682ZM74.2614 79.5739C74.2614 81.2276 72.9208 82.5682 71.267 82.5682C69.6133 82.5682 68.2727 81.2276 68.2727 79.5739C68.2727 77.9202 69.6133 76.5796 71.267 76.5796C72.9208 76.5796 74.2614 77.9202 74.2614 79.5739ZM79.5739 82.5682C81.2276 82.5682 82.5682 81.2276 82.5682 79.5739C82.5682 77.9202 81.2276 76.5796 79.5739 76.5796C77.9201 76.5796 76.5795 77.9202 76.5795 79.5739C76.5795 81.2276 77.9201 82.5682 79.5739 82.5682ZM16.1136 87.8807C16.1136 89.5344 14.773 90.875 13.1193 90.875C11.4656 90.875 10.125 89.5344 10.125 87.8807C10.125 86.227 11.4656 84.8864 13.1193 84.8864C14.773 84.8864 16.1136 86.227 16.1136 87.8807ZM21.4261 90.875C23.0799 90.875 24.4205 89.5344 24.4205 87.8807C24.4205 86.227 23.0799 84.8864 21.4261 84.8864C19.7724 84.8864 18.4318 86.227 18.4318 87.8807C18.4318 89.5344 19.7724 90.875 21.4261 90.875ZM32.7273 87.8807C32.7273 89.5344 31.3867 90.875 29.733 90.875C28.0792 90.875 26.7386 89.5344 26.7386 87.8807C26.7386 86.227 28.0792 84.8864 29.733 84.8864C31.3867 84.8864 32.7273 86.227 32.7273 87.8807ZM38.0398 90.875C39.6935 90.875 41.0341 89.5344 41.0341 87.8807C41.0341 86.227 39.6935 84.8864 38.0398 84.8864C36.3861 84.8864 35.0455 86.227 35.0455 87.8807C35.0455 89.5344 36.3861 90.875 38.0398 90.875ZM49.3409 87.8807C49.3409 89.5344 48.0003 90.875 46.3466 90.875C44.6929 90.875 43.3523 89.5344 43.3523 87.8807C43.3523 86.227 44.6929 84.8864 46.3466 84.8864C48.0003 84.8864 49.3409 86.227 49.3409 87.8807ZM54.6534 90.875C56.3071 90.875 57.6477 89.5344 57.6477 87.8807C57.6477 86.227 56.3071 84.8864 54.6534 84.8864C52.9997 84.8864 51.6591 86.227 51.6591 87.8807C51.6591 89.5344 52.9997 90.875 54.6534 90.875ZM65.9545 87.8807C65.9545 89.5344 64.6139 90.875 62.9602 90.875C61.3065 90.875 59.9659 89.5344 59.9659 87.8807C59.9659 86.227 61.3065 84.8864 62.9602 84.8864C64.6139 84.8864 65.9545 86.227 65.9545 87.8807ZM71.267 90.875C72.9208 90.875 74.2614 89.5344 74.2614 87.8807C74.2614 86.227 72.9208 84.8864 71.267 84.8864C69.6133 84.8864 68.2727 86.227 68.2727 87.8807C68.2727 89.5344 69.6133 90.875 71.267 90.875ZM82.5682 87.8807C82.5682 89.5344 81.2276 90.875 79.5739 90.875C77.9201 90.875 76.5795 89.5344 76.5795 87.8807C76.5795 86.227 77.9201 84.8864 79.5739 84.8864C81.2276 84.8864 82.5682 86.227 82.5682 87.8807ZM13.1193 115.795C14.773 115.795 16.1136 114.455 16.1136 112.801C16.1136 111.147 14.773 109.807 13.1193 109.807C11.4656 109.807 10.125 111.147 10.125 112.801C10.125 114.455 11.4656 115.795 13.1193 115.795ZM24.4205 112.801C24.4205 114.455 23.0799 115.795 21.4261 115.795C19.7724 115.795 18.4318 114.455 18.4318 112.801C18.4318 111.147 19.7724 109.807 21.4261 109.807C23.0799 109.807 24.4205 111.147 24.4205 112.801ZM29.733 115.795C31.3867 115.795 32.7273 114.455 32.7273 112.801C32.7273 111.147 31.3867 109.807 29.733 109.807C28.0792 109.807 26.7386 111.147 26.7386 112.801C26.7386 114.455 28.0792 115.795 29.733 115.795ZM41.0341 112.801C41.0341 114.455 39.6935 115.795 38.0398 115.795C36.3861 115.795 35.0455 114.455 35.0455 112.801C35.0455 111.147 36.3861 109.807 38.0398 109.807C39.6935 109.807 41.0341 111.147 41.0341 112.801ZM46.3466 115.795C48.0003 115.795 49.3409 114.455 49.3409 112.801C49.3409 111.147 48.0003 109.807 46.3466 109.807C44.6929 109.807 43.3523 111.147 43.3523 112.801C43.3523 114.455 44.6929 115.795 46.3466 115.795ZM57.6477 112.801C57.6477 114.455 56.3071 115.795 54.6534 115.795C52.9997 115.795 51.6591 114.455 51.6591 112.801C51.6591 111.147 52.9997 109.807 54.6534 109.807C56.3071 109.807 57.6477 111.147 57.6477 112.801ZM62.9602 115.795C64.6139 115.795 65.9545 114.455 65.9545 112.801C65.9545 111.147 64.6139 109.807 62.9602 109.807C61.3065 109.807 59.9659 111.147 59.9659 112.801C59.9659 114.455 61.3065 115.795 62.9602 115.795ZM74.2614 112.801C74.2614 114.455 72.9208 115.795 71.267 115.795C69.6133 115.795 68.2727 114.455 68.2727 112.801C68.2727 111.147 69.6133 109.807 71.267 109.807C72.9208 109.807 74.2614 111.147 74.2614 112.801ZM79.5739 115.795C81.2276 115.795 82.5682 114.455 82.5682 112.801C82.5682 111.147 81.2276 109.807 79.5739 109.807C77.9201 109.807 76.5795 111.147 76.5795 112.801C76.5795 114.455 77.9201 115.795 79.5739 115.795ZM24.4205 121.108C24.4205 122.762 23.0799 124.102 21.4261 124.102C19.7724 124.102 18.4318 122.762 18.4318 121.108C18.4318 119.454 19.7724 118.114 21.4261 118.114C23.0799 118.114 24.4205 119.454 24.4205 121.108ZM29.733 124.102C31.3867 124.102 32.7273 122.762 32.7273 121.108C32.7273 119.454 31.3867 118.114 29.733 118.114C28.0792 118.114 26.7386 119.454 26.7386 121.108C26.7386 122.762 28.0792 124.102 29.733 124.102ZM41.0341 121.108C41.0341 122.762 39.6935 124.102 38.0398 124.102C36.3861 124.102 35.0455 122.762 35.0455 121.108C35.0455 119.454 36.3861 118.114 38.0398 118.114C39.6935 118.114 41.0341 119.454 41.0341 121.108ZM46.3466 124.102C48.0003 124.102 49.3409 122.762 49.3409 121.108C49.3409 119.454 48.0003 118.114 46.3466 118.114C44.6929 118.114 43.3523 119.454 43.3523 121.108C43.3523 122.762 44.6929 124.102 46.3466 124.102ZM57.6477 121.108C57.6477 122.762 56.3071 124.102 54.6534 124.102C52.9997 124.102 51.6591 122.762 51.6591 121.108C51.6591 119.454 52.9997 118.114 54.6534 118.114C56.3071 118.114 57.6477 119.454 57.6477 121.108ZM62.9602 124.102C64.6139 124.102 65.9545 122.762 65.9545 121.108C65.9545 119.454 64.6139 118.114 62.9602 118.114C61.3065 118.114 59.9659 119.454 59.9659 121.108C59.9659 122.762 61.3065 124.102 62.9602 124.102ZM74.2614 121.108C74.2614 122.762 72.9208 124.102 71.267 124.102C69.6133 124.102 68.2727 122.762 68.2727 121.108C68.2727 119.454 69.6133 118.114 71.267 118.114C72.9208 118.114 74.2614 119.454 74.2614 121.108ZM29.733 132.409C31.3867 132.409 32.7273 131.068 32.7273 129.415C32.7273 127.761 31.3867 126.42 29.733 126.42C28.0792 126.42 26.7386 127.761 26.7386 129.415C26.7386 131.068 28.0792 132.409 29.733 132.409ZM41.0341 129.415C41.0341 131.068 39.6935 132.409 38.0398 132.409C36.3861 132.409 35.0455 131.068 35.0455 129.415C35.0455 127.761 36.3861 126.42 38.0398 126.42C39.6935 126.42 41.0341 127.761 41.0341 129.415ZM46.3466 132.409C48.0003 132.409 49.3409 131.068 49.3409 129.415C49.3409 127.761 48.0003 126.42 46.3466 126.42C44.6929 126.42 43.3523 127.761 43.3523 129.415C43.3523 131.068 44.6929 132.409 46.3466 132.409ZM57.6477 129.415C57.6477 131.068 56.3071 132.409 54.6534 132.409C52.9997 132.409 51.6591 131.068 51.6591 129.415C51.6591 127.761 52.9997 126.42 54.6534 126.42C56.3071 126.42 57.6477 127.761 57.6477 129.415ZM62.9602 132.409C64.6139 132.409 65.9545 131.068 65.9545 129.415C65.9545 127.761 64.6139 126.42 62.9602 126.42C61.3065 126.42 59.9659 127.761 59.9659 129.415C59.9659 131.068 61.3065 132.409 62.9602 132.409Z" fill="#2850AD"/>
<path fill-rule="evenodd" clip-rule="evenodd" d="M82.5681 62.9602C82.5681 64.6139 81.2275 65.9546 79.5738 65.9546C77.9201 65.9546 76.5795 64.6139 76.5795 62.9602C76.5795 61.3065 77.9201 59.9659 79.5738 59.9659C81.2275 59.9659 82.5681 61.3065 82.5681 62.9602ZM90.8749 62.9602C90.8749 64.6139 89.5343 65.9546 87.8806 65.9546C86.2269 65.9546 84.8863 64.6139 84.8863 62.9602C84.8863 61.3065 86.2269 59.9659 87.8806 59.9659C89.5343 59.9659 90.8749 61.3065 90.8749 62.9602ZM96.1874 65.9546C97.8411 65.9546 99.1817 64.6139 99.1817 62.9602C99.1817 61.3065 97.8411 59.9659 96.1874 59.9659C94.5337 59.9659 93.1931 61.3065 93.1931 62.9602C93.1931 64.6139 94.5337 65.9546 96.1874 65.9546ZM107.489 62.9602C107.489 64.6139 106.148 65.9546 104.494 65.9546C102.841 65.9546 101.5 64.6139 101.5 62.9602C101.5 61.3065 102.841 59.9659 104.494 59.9659C106.148 59.9659 107.489 61.3065 107.489 62.9602ZM112.801 65.9546C114.455 65.9546 115.795 64.6139 115.795 62.9602C115.795 61.3065 114.455 59.9659 112.801 59.9659C111.147 59.9659 109.807 61.3065 109.807 62.9602C109.807 64.6139 111.147 65.9546 112.801 65.9546ZM74.2613 71.2671C74.2613 72.9208 72.9207 74.2614 71.267 74.2614C69.6132 74.2614 68.2726 72.9208 68.2726 71.2671C68.2726 69.6133 69.6132 68.2727 71.267 68.2727C72.9207 68.2727 74.2613 69.6133 74.2613 71.2671ZM79.5738 74.2614C81.2275 74.2614 82.5681 72.9208 82.5681 71.2671C82.5681 69.6133 81.2275 68.2727 79.5738 68.2727C77.9201 68.2727 76.5795 69.6133 76.5795 71.2671C76.5795 72.9208 77.9201 74.2614 79.5738 74.2614ZM90.8749 71.2671C90.8749 72.9208 89.5343 74.2614 87.8806 74.2614C86.2269 74.2614 84.8863 72.9208 84.8863 71.2671C84.8863 69.6133 86.2269 68.2727 87.8806 68.2727C89.5343 68.2727 90.8749 69.6133 90.8749 71.2671ZM96.1874 74.2614C97.8411 74.2614 99.1817 72.9208 99.1817 71.2671C99.1817 69.6133 97.8411 68.2727 96.1874 68.2727C94.5337 68.2727 93.1931 69.6133 93.1931 71.2671C93.1931 72.9208 94.5337 74.2614 96.1874 74.2614ZM107.489 71.2671C107.489 72.9208 106.148 74.2614 104.494 74.2614C102.841 74.2614 101.5 72.9208 101.5 71.2671C101.5 69.6133 102.841 68.2727 104.494 68.2727C106.148 68.2727 107.489 69.6133 107.489 71.2671ZM112.801 74.2614C114.455 74.2614 115.795 72.9208 115.795 71.2671C115.795 69.6133 114.455 68.2727 112.801 68.2727C111.147 68.2727 109.807 69.6133 109.807 71.2671C109.807 72.9208 111.147 74.2614 112.801 74.2614ZM124.102 71.2671C124.102 72.9208 122.762 74.2614 121.108 74.2614C119.454 74.2614 118.114 72.9208 118.114 71.2671C118.114 69.6133 119.454 68.2727 121.108 68.2727C122.762 68.2727 124.102 69.6133 124.102 71.2671ZM62.9601 82.5682C64.6139 82.5682 65.9545 81.2276 65.9545 79.5739C65.9545 77.9202 64.6139 76.5796 62.9601 76.5796C61.3064 76.5796 59.9658 77.9202 59.9658 79.5739C59.9658 81.2276 61.3064 82.5682 62.9601 82.5682ZM74.2613 79.5739C74.2613 81.2276 72.9207 82.5682 71.267 82.5682C69.6132 82.5682 68.2726 81.2276 68.2726 79.5739C68.2726 77.9202 69.6132 76.5796 71.267 76.5796C72.9207 76.5796 74.2613 77.9202 74.2613 79.5739ZM79.5738 82.5682C81.2275 82.5682 82.5681 81.2276 82.5681 79.5739C82.5681 77.9202 81.2275 76.5796 79.5738 76.5796C77.9201 76.5796 76.5795 77.9202 76.5795 79.5739C76.5795 81.2276 77.9201 82.5682 79.5738 82.5682ZM90.8749 79.5739C90.8749 81.2276 89.5343 82.5682 87.8806 82.5682C86.2269 82.5682 84.8863 81.2276 84.8863 79.5739C84.8863 77.9202 86.2269 76.5796 87.8806 76.5796C89.5343 76.5796 90.8749 77.9202 90.8749 79.5739ZM96.1874 82.5682C97.8411 82.5682 99.1817 81.2276 99.1817 79.5739C99.1817 77.9202 97.8411 76.5796 96.1874 76.5796C94.5337 76.5796 93.1931 77.9202 93.1931 79.5739C93.1931 81.2276 94.5337 82.5682 96.1874 82.5682ZM107.489 79.5739C107.489 81.2276 106.148 82.5682 104.494 82.5682C102.841 82.5682 101.5 81.2276 101.5 79.5739C101.5 77.9202 102.841 76.5796 104.494 76.5796C106.148 76.5796 107.489 77.9202 107.489 79.5739ZM112.801 82.5682C114.455 82.5682 115.795 81.2276 115.795 79.5739C115.795 77.9202 114.455 76.5796 112.801 76.5796C111.147 76.5796 109.807 77.9202 109.807 79.5739C109.807 81.2276 111.147 82.5682 112.801 82.5682ZM124.102 79.5739C124.102 81.2276 122.762 82.5682 121.108 82.5682C119.454 82.5682 118.114 81.2276 118.114 79.5739C118.114 77.9202 119.454 76.5796 121.108 76.5796C122.762 76.5796 124.102 77.9202 124.102 79.5739ZM129.415 82.5682C131.068 82.5682 132.409 81.2276 132.409 79.5739C132.409 77.9202 131.068 76.5796 129.415 76.5796C127.761 76.5796 126.42 77.9202 126.42 79.5739C126.42 81.2276 127.761 82.5682 129.415 82.5682ZM65.9545 87.8807C65.9545 89.5344 64.6139 90.875 62.9601 90.875C61.3064 90.875 59.9658 89.5344 59.9658 87.8807C59.9658 86.227 61.3064 84.8864 62.9601 84.8864C64.6139 84.8864 65.9545 86.227 65.9545 87.8807ZM71.267 90.875C72.9207 90.875 74.2613 89.5344 74.2613 87.8807C74.2613 86.227 72.9207 84.8864 71.267 84.8864C69.6132 84.8864 68.2726 86.227 68.2726 87.8807C68.2726 89.5344 69.6132 90.875 71.267 90.875ZM82.5681 87.8807C82.5681 89.5344 81.2275 90.875 79.5738 90.875C77.9201 90.875 76.5795 89.5344 76.5795 87.8807C76.5795 86.227 77.9201 84.8864 79.5738 84.8864C81.2275 84.8864 82.5681 86.227 82.5681 87.8807ZM87.8806 90.875C89.5343 90.875 90.8749 89.5344 90.8749 87.8807C90.8749 86.227 89.5343 84.8864 87.8806 84.8864C86.2269 84.8864 84.8863 86.227 84.8863 87.8807C84.8863 89.5344 86.2269 90.875 87.8806 90.875ZM99.1817 87.8807C99.1817 89.5344 97.8411 90.875 96.1874 90.875C94.5337 90.875 93.1931 89.5344 93.1931 87.8807C93.1931 86.227 94.5337 84.8864 96.1874 84.8864C97.8411 84.8864 99.1817 86.227 99.1817 87.8807ZM104.494 90.875C106.148 90.875 107.489 89.5344 107.489 87.8807C107.489 86.227 106.148 84.8864 104.494 84.8864C102.841 84.8864 101.5 86.227 101.5 87.8807C101.5 89.5344 102.841 90.875 104.494 90.875ZM115.795 87.8807C115.795 89.5344 114.455 90.875 112.801 90.875C111.147 90.875 109.807 89.5344 109.807 87.8807C109.807 86.227 111.147 84.8864 112.801 84.8864C114.455 84.8864 115.795 86.227 115.795 87.8807ZM121.108 90.875C122.762 90.875 124.102 89.5344 124.102 87.8807C124.102 86.227 122.762 84.8864 121.108 84.8864C119.454 84.8864 118.114 86.227 118.114 87.8807C118.114 89.5344 119.454 90.875 121.108 90.875ZM132.409 87.8807C132.409 89.5344 131.068 90.875 129.415 90.875C127.761 90.875 126.42 89.5344 126.42 87.8807C126.42 86.227 127.761 84.8864 129.415 84.8864C131.068 84.8864 132.409 86.227 132.409 87.8807ZM62.9601 99.1818C64.6139 99.1818 65.9545 97.8412 65.9545 96.1875C65.9545 94.5338 64.6139 93.1932 62.9601 93.1932C61.3064 93.1932 59.9658 94.5338 59.9658 96.1875C59.9658 97.8412 61.3064 99.1818 62.9601 99.1818ZM74.2613 96.1875C74.2613 97.8412 72.9207 99.1818 71.267 99.1818C69.6132 99.1818 68.2726 97.8412 68.2726 96.1875C68.2726 94.5338 69.6132 93.1932 71.267 93.1932C72.9207 93.1932 74.2613 94.5338 74.2613 96.1875ZM79.5738 99.1818C81.2275 99.1818 82.5681 97.8412 82.5681 96.1875C82.5681 94.5338 81.2275 93.1932 79.5738 93.1932C77.9201 93.1932 76.5795 94.5338 76.5795 96.1875C76.5795 97.8412 77.9201 99.1818 79.5738 99.1818ZM90.8749 96.1875C90.8749 97.8412 89.5343 99.1818 87.8806 99.1818C86.2269 99.1818 84.8863 97.8412 84.8863 96.1875C84.8863 94.5338 86.2269 93.1932 87.8806 93.1932C89.5343 93.1932 90.8749 94.5338 90.8749 96.1875ZM96.1874 99.1818C97.8411 99.1818 99.1817 97.8412 99.1817 96.1875C99.1817 94.5338 97.8411 93.1932 96.1874 93.1932C94.5337 93.1932 93.1931 94.5338 93.1931 96.1875C93.1931 97.8412 94.5337 99.1818 96.1874 99.1818ZM107.489 96.1875C107.489 97.8412 106.148 99.1818 104.494 99.1818C102.841 99.1818 101.5 97.8412 101.5 96.1875C101.5 94.5338 102.841 93.1932 104.494 93.1932C106.148 93.1932 107.489 94.5338 107.489 96.1875ZM112.801 99.1818C114.455 99.1818 115.795 97.8412 115.795 96.1875C115.795 94.5338 114.455 93.1932 112.801 93.1932C111.147 93.1932 109.807 94.5338 109.807 96.1875C109.807 97.8412 111.147 99.1818 112.801 99.1818ZM124.102 96.1875C124.102 97.8412 122.762 99.1818 121.108 99.1818C119.454 99.1818 118.114 97.8412 118.114 96.1875C118.114 94.5338 119.454 93.1932 121.108 93.1932C122.762 93.1932 124.102 94.5338 124.102 96.1875ZM129.415 99.1818C131.068 99.1818 132.409 97.8412 132.409 96.1875C132.409 94.5338 131.068 93.1932 129.415 93.1932C127.761 93.1932 126.42 94.5338 126.42 96.1875C126.42 97.8412 127.761 99.1818 129.415 99.1818ZM65.9545 104.494C65.9545 106.148 64.6139 107.489 62.9601 107.489C61.3064 107.489 59.9658 106.148 59.9658 104.494C59.9658 102.841 61.3064 101.5 62.9601 101.5C64.6139 101.5 65.9545 102.841 65.9545 104.494ZM71.267 107.489C72.9207 107.489 74.2613 106.148 74.2613 104.494C74.2613 102.841 72.9207 101.5 71.267 101.5C69.6132 101.5 68.2726 102.841 68.2726 104.494C68.2726 106.148 69.6132 107.489 71.267 107.489ZM82.5681 104.494C82.5681 106.148 81.2275 107.489 79.5738 107.489C77.9201 107.489 76.5795 106.148 76.5795 104.494C76.5795 102.841 77.9201 101.5 79.5738 101.5C81.2275 101.5 82.5681 102.841 82.5681 104.494ZM87.8806 107.489C89.5343 107.489 90.8749 106.148 90.8749 104.494C90.8749 102.841 89.5343 101.5 87.8806 101.5C86.2269 101.5 84.8863 102.841 84.8863 104.494C84.8863 106.148 86.2269 107.489 87.8806 107.489ZM99.1817 104.494C99.1817 106.148 97.8411 107.489 96.1874 107.489C94.5337 107.489 93.1931 106.148 93.1931 104.494C93.1931 102.841 94.5337 101.5 96.1874 101.5C97.8411 101.5 99.1817 102.841 99.1817 104.494ZM104.494 107.489C106.148 107.489 107.489 106.148 107.489 104.494C107.489 102.841 106.148 101.5 104.494 101.5C102.841 101.5 101.5 102.841 101.5 104.494C101.5 106.148 102.841 107.489 104.494 107.489ZM115.795 104.494C115.795 106.148 114.455 107.489 112.801 107.489C111.147 107.489 109.807 106.148 109.807 104.494C109.807 102.841 111.147 101.5 112.801 101.5C114.455 101.5 115.795 102.841 115.795 104.494ZM121.108 107.489C122.762 107.489 124.102 106.148 124.102 104.494C124.102 102.841 122.762 101.5 121.108 101.5C119.454 101.5 118.114 102.841 118.114 104.494C118.114 106.148 119.454 107.489 121.108 107.489ZM132.409 104.494C132.409 106.148 131.068 107.489 129.415 107.489C127.761 107.489 126.42 106.148 126.42 104.494C126.42 102.841 127.761 101.5 129.415 101.5C131.068 101.5 132.409 102.841 132.409 104.494ZM62.9601 115.795C64.6139 115.795 65.9545 114.455 65.9545 112.801C65.9545 111.147 64.6139 109.807 62.9601 109.807C61.3064 109.807 59.9658 111.147 59.9658 112.801C59.9658 114.455 61.3064 115.795 62.9601 115.795ZM74.2613 112.801C74.2613 114.455 72.9207 115.795 71.267 115.795C69.6132 115.795 68.2726 114.455 68.2726 112.801C68.2726 111.147 69.6132 109.807 71.267 109.807C72.9207 109.807 74.2613 111.147 74.2613 112.801ZM79.5738 115.795C81.2275 115.795 82.5681 114.455 82.5681 112.801C82.5681 111.147 81.2275 109.807 79.5738 109.807C77.9201 109.807 76.5795 111.147 76.5795 112.801C76.5795 114.455 77.9201 115.795 79.5738 115.795ZM90.8749 112.801C90.8749 114.455 89.5343 115.795 87.8806 115.795C86.2269 115.795 84.8863 114.455 84.8863 112.801C84.8863 111.147 86.2269 109.807 87.8806 109.807C89.5343 109.807 90.8749 111.147 90.8749 112.801ZM96.1874 115.795C97.8411 115.795 99.1817 114.455 99.1817 112.801C99.1817 111.147 97.8411 109.807 96.1874 109.807C94.5337 109.807 93.1931 111.147 93.1931 112.801C93.1931 114.455 94.5337 115.795 96.1874 115.795ZM107.489 112.801C107.489 114.455 106.148 115.795 104.494 115.795C102.841 115.795 101.5 114.455 101.5 112.801C101.5 111.147 102.841 109.807 104.494 109.807C106.148 109.807 107.489 111.147 107.489 112.801ZM112.801 115.795C114.455 115.795 115.795 114.455 115.795 112.801C115.795 111.147 114.455 109.807 112.801 109.807C111.147 109.807 109.807 111.147 109.807 112.801C109.807 114.455 111.147 115.795 112.801 115.795ZM124.102 112.801C124.102 114.455 122.762 115.795 121.108 115.795C119.454 115.795 118.114 114.455 118.114 112.801C118.114 111.147 119.454 109.807 121.108 109.807C122.762 109.807 124.102 111.147 124.102 112.801ZM129.415 115.795C131.068 115.795 132.409 114.455 132.409 112.801C132.409 111.147 131.068 109.807 129.415 109.807C127.761 109.807 126.42 111.147 126.42 112.801C126.42 114.455 127.761 115.795 129.415 115.795ZM82.5681 129.415C82.5681 131.068 81.2275 132.409 79.5738 132.409C77.9201 132.409 76.5795 131.068 76.5795 129.415C76.5795 127.761 77.9201 126.42 79.5738 126.42C81.2275 126.42 82.5681 127.761 82.5681 129.415ZM87.8806 132.409C89.5343 132.409 90.8749 131.068 90.8749 129.415C90.8749 127.761 89.5343 126.42 87.8806 126.42C86.2269 126.42 84.8863 127.761 84.8863 129.415C84.8863 131.068 86.2269 132.409 87.8806 132.409ZM99.1817 129.415C99.1817 131.068 97.8411 132.409 96.1874 132.409C94.5337 132.409 93.1931 131.068 93.1931 129.415C93.1931 127.761 94.5337 126.42 96.1874 126.42C97.8411 126.42 99.1817 127.761 99.1817 129.415ZM104.494 132.409C106.148 132.409 107.489 131.068 107.489 129.415C107.489 127.761 106.148 126.42 104.494 126.42C102.841 126.42 101.5 127.761 101.5 129.415C101.5 131.068 102.841 132.409 104.494 132.409ZM115.795 129.415C115.795 131.068 114.455 132.409 112.801 132.409C111.147 132.409 109.807 131.068 109.807 129.415C109.807 127.761 111.147 126.42 112.801 126.42C114.455 126.42 115.795 127.761 115.795 129.415ZM71.267 124.102C72.9207 124.102 74.2613 122.762 74.2613 121.108C74.2613 119.454 72.9207 118.114 71.267 118.114C69.6132 118.114 68.2726 119.454 68.2726 121.108C68.2726 122.762 69.6132 124.102 71.267 124.102ZM82.5681 121.108C82.5681 122.762 81.2275 124.102 79.5738 124.102C77.9201 124.102 76.5795 122.762 76.5795 121.108C76.5795 119.454 77.9201 118.114 79.5738 118.114C81.2275 118.114 82.5681 119.454 82.5681 121.108ZM87.8806 124.102C89.5343 124.102 90.8749 122.762 90.8749 121.108C90.8749 119.454 89.5343 118.114 87.8806 118.114C86.2269 118.114 84.8863 119.454 84.8863 121.108C84.8863 122.762 86.2269 124.102 87.8806 124.102ZM99.1817 121.108C99.1817 122.762 97.8411 124.102 96.1874 124.102C94.5337 124.102 93.1931 122.762 93.1931 121.108C93.1931 119.454 94.5337 118.114 96.1874 118.114C97.8411 118.114 99.1817 119.454 99.1817 121.108ZM104.494 124.102C106.148 124.102 107.489 122.762 107.489 121.108C107.489 119.454 106.148 118.114 104.494 118.114C102.841 118.114 101.5 119.454 101.5 121.108C101.5 122.762 102.841 124.102 104.494 124.102ZM115.795 121.108C115.795 122.762 114.455 124.102 112.801 124.102C111.147 124.102 109.807 122.762 109.807 121.108C109.807 119.454 111.147 118.114 112.801 118.114C114.455 118.114 115.795 119.454 115.795 121.108ZM121.108 124.102C122.762 124.102 124.102 122.762 124.102 121.108C124.102 119.454 122.762 118.114 121.108 118.114C119.454 118.114 118.114 119.454 118.114 121.108C118.114 122.762 119.454 124.102 121.108 124.102Z" fill="#00933C"/>
<path fill-rule="evenodd" clip-rule="evenodd" d="M132.409 62.9602C132.409 64.6139 131.069 65.9546 129.415 65.9546C127.761 65.9546 126.421 64.6139 126.421 62.9602C126.421 61.3065 127.761 59.9659 129.415 59.9659C131.069 59.9659 132.409 61.3065 132.409 62.9602ZM140.716 62.9602C140.716 64.6139 139.375 65.9546 137.722 65.9546C136.068 65.9546 134.727 64.6139 134.727 62.9602C134.727 61.3065 136.068 59.9659 137.722 59.9659C139.375 59.9659 140.716 61.3065 140.716 62.9602ZM146.028 65.9546C147.682 65.9546 149.023 64.6139 149.023 62.9602C149.023 61.3065 147.682 59.9659 146.028 59.9659C144.375 59.9659 143.034 61.3065 143.034 62.9602C143.034 64.6139 144.375 65.9546 146.028 65.9546ZM157.33 62.9602C157.33 64.6139 155.989 65.9546 154.335 65.9546C152.682 65.9546 151.341 64.6139 151.341 62.9602C151.341 61.3065 152.682 59.9659 154.335 59.9659C155.989 59.9659 157.33 61.3065 157.33 62.9602ZM162.642 65.9546C164.296 65.9546 165.636 64.6139 165.636 62.9602C165.636 61.3065 164.296 59.9659 162.642 59.9659C160.988 59.9659 159.648 61.3065 159.648 62.9602C159.648 64.6139 160.988 65.9546 162.642 65.9546ZM124.102 71.2671C124.102 72.9208 122.762 74.2614 121.108 74.2614C119.454 74.2614 118.114 72.9208 118.114 71.2671C118.114 69.6133 119.454 68.2727 121.108 68.2727C122.762 68.2727 124.102 69.6133 124.102 71.2671ZM129.415 74.2614C131.069 74.2614 132.409 72.9208 132.409 71.2671C132.409 69.6133 131.069 68.2727 129.415 68.2727C127.761 68.2727 126.421 69.6133 126.421 71.2671C126.421 72.9208 127.761 74.2614 129.415 74.2614ZM140.716 71.2671C140.716 72.9208 139.375 74.2614 137.722 74.2614C136.068 74.2614 134.727 72.9208 134.727 71.2671C134.727 69.6133 136.068 68.2727 137.722 68.2727C139.375 68.2727 140.716 69.6133 140.716 71.2671ZM146.028 74.2614C147.682 74.2614 149.023 72.9208 149.023 71.2671C149.023 69.6133 147.682 68.2727 146.028 68.2727C144.375 68.2727 143.034 69.6133 143.034 71.2671C143.034 72.9208 144.375 74.2614 146.028 74.2614ZM157.33 71.2671C157.33 72.9208 155.989 74.2614 154.335 74.2614C152.682 74.2614 151.341 72.9208 151.341 71.2671C151.341 69.6133 152.682 68.2727 154.335 68.2727C155.989 68.2727 157.33 69.6133 157.33 71.2671ZM162.642 74.2614C164.296 74.2614 165.636 72.9208 165.636 71.2671C165.636 69.6133 164.296 68.2727 162.642 68.2727C160.988 68.2727 159.648 69.6133 159.648 71.2671C159.648 72.9208 160.988 74.2614 162.642 74.2614ZM173.943 71.2671C173.943 72.9208 172.603 74.2614 170.949 74.2614C169.295 74.2614 167.955 72.9208 167.955 71.2671C167.955 69.6133 169.295 68.2727 170.949 68.2727C172.603 68.2727 173.943 69.6133 173.943 71.2671ZM112.801 82.5682C114.455 82.5682 115.796 81.2276 115.796 79.5739C115.796 77.9202 114.455 76.5796 112.801 76.5796C111.147 76.5796 109.807 77.9202 109.807 79.5739C109.807 81.2276 111.147 82.5682 112.801 82.5682ZM124.102 79.5739C124.102 81.2276 122.762 82.5682 121.108 82.5682C119.454 82.5682 118.114 81.2276 118.114 79.5739C118.114 77.9202 119.454 76.5796 121.108 76.5796C122.762 76.5796 124.102 77.9202 124.102 79.5739ZM129.415 82.5682C131.069 82.5682 132.409 81.2276 132.409 79.5739C132.409 77.9202 131.069 76.5796 129.415 76.5796C127.761 76.5796 126.421 77.9202 126.421 79.5739C126.421 81.2276 127.761 82.5682 129.415 82.5682ZM140.716 79.5739C140.716 81.2276 139.375 82.5682 137.722 82.5682C136.068 82.5682 134.727 81.2276 134.727 79.5739C134.727 77.9202 136.068 76.5796 137.722 76.5796C139.375 76.5796 140.716 77.9202 140.716 79.5739ZM146.028 82.5682C147.682 82.5682 149.023 81.2276 149.023 79.5739C149.023 77.9202 147.682 76.5796 146.028 76.5796C144.375 76.5796 143.034 77.9202 143.034 79.5739C143.034 81.2276 144.375 82.5682 146.028 82.5682ZM157.33 79.5739C157.33 81.2276 155.989 82.5682 154.335 82.5682C152.682 82.5682 151.341 81.2276 151.341 79.5739C151.341 77.9202 152.682 76.5796 154.335 76.5796C155.989 76.5796 157.33 77.9202 157.33 79.5739ZM162.642 82.5682C164.296 82.5682 165.636 81.2276 165.636 79.5739C165.636 77.9202 164.296 76.5796 162.642 76.5796C160.988 76.5796 159.648 77.9202 159.648 79.5739C159.648 81.2276 160.988 82.5682 162.642 82.5682ZM173.943 79.5739C173.943 81.2276 172.603 82.5682 170.949 82.5682C169.295 82.5682 167.955 81.2276 167.955 79.5739C167.955 77.9202 169.295 76.5796 170.949 76.5796C172.603 76.5796 173.943 77.9202 173.943 79.5739ZM179.256 82.5682C180.909 82.5682 182.25 81.2276 182.25 79.5739C182.25 77.9202 180.909 76.5796 179.256 76.5796C177.602 76.5796 176.261 77.9202 176.261 79.5739C176.261 81.2276 177.602 82.5682 179.256 82.5682ZM115.796 87.8807C115.796 89.5344 114.455 90.875 112.801 90.875C111.147 90.875 109.807 89.5344 109.807 87.8807C109.807 86.227 111.147 84.8864 112.801 84.8864C114.455 84.8864 115.796 86.227 115.796 87.8807ZM121.108 90.875C122.762 90.875 124.102 89.5344 124.102 87.8807C124.102 86.227 122.762 84.8864 121.108 84.8864C119.454 84.8864 118.114 86.227 118.114 87.8807C118.114 89.5344 119.454 90.875 121.108 90.875ZM132.409 87.8807C132.409 89.5344 131.069 90.875 129.415 90.875C127.761 90.875 126.421 89.5344 126.421 87.8807C126.421 86.227 127.761 84.8864 129.415 84.8864C131.069 84.8864 132.409 86.227 132.409 87.8807ZM137.722 90.875C139.375 90.875 140.716 89.5344 140.716 87.8807C140.716 86.227 139.375 84.8864 137.722 84.8864C136.068 84.8864 134.727 86.227 134.727 87.8807C134.727 89.5344 136.068 90.875 137.722 90.875ZM149.023 87.8807C149.023 89.5344 147.682 90.875 146.028 90.875C144.375 90.875 143.034 89.5344 143.034 87.8807C143.034 86.227 144.375 84.8864 146.028 84.8864C147.682 84.8864 149.023 86.227 149.023 87.8807ZM154.335 90.875C155.989 90.875 157.33 89.5344 157.33 87.8807C157.33 86.227 155.989 84.8864 154.335 84.8864C152.682 84.8864 151.341 86.227 151.341 87.8807C151.341 89.5344 152.682 90.875 154.335 90.875ZM165.636 87.8807C165.636 89.5344 164.296 90.875 162.642 90.875C160.988 90.875 159.648 89.5344 159.648 87.8807C159.648 86.227 160.988 84.8864 162.642 84.8864C164.296 84.8864 165.636 86.227 165.636 87.8807ZM170.949 90.875C172.603 90.875 173.943 89.5344 173.943 87.8807C173.943 86.227 172.603 84.8864 170.949 84.8864C169.295 84.8864 167.955 86.227 167.955 87.8807C167.955 89.5344 169.295 90.875 170.949 90.875ZM182.25 87.8807C182.25 89.5344 180.909 90.875 179.256 90.875C177.602 90.875 176.261 89.5344 176.261 87.8807C176.261 86.227 177.602 84.8864 179.256 84.8864C180.909 84.8864 182.25 86.227 182.25 87.8807ZM112.801 99.1818C114.455 99.1818 115.796 97.8412 115.796 96.1875C115.796 94.5338 114.455 93.1932 112.801 93.1932C111.147 93.1932 109.807 94.5338 109.807 96.1875C109.807 97.8412 111.147 99.1818 112.801 99.1818ZM124.102 96.1875C124.102 97.8412 122.762 99.1818 121.108 99.1818C119.454 99.1818 118.114 97.8412 118.114 96.1875C118.114 94.5338 119.454 93.1932 121.108 93.1932C122.762 93.1932 124.102 94.5338 124.102 96.1875ZM129.415 99.1818C131.069 99.1818 132.409 97.8412 132.409 96.1875C132.409 94.5338 131.069 93.1932 129.415 93.1932C127.761 93.1932 126.421 94.5338 126.421 96.1875C126.421 97.8412 127.761 99.1818 129.415 99.1818ZM140.716 96.1875C140.716 97.8412 139.375 99.1818 137.722 99.1818C136.068 99.1818 134.727 97.8412 134.727 96.1875C134.727 94.5338 136.068 93.1932 137.722 93.1932C139.375 93.1932 140.716 94.5338 140.716 96.1875ZM146.028 99.1818C147.682 99.1818 149.023 97.8412 149.023 96.1875C149.023 94.5338 147.682 93.1932 146.028 93.1932C144.375 93.1932 143.034 94.5338 143.034 96.1875C143.034 97.8412 144.375 99.1818 146.028 99.1818ZM157.33 96.1875C157.33 97.8412 155.989 99.1818 154.335 99.1818C152.682 99.1818 151.341 97.8412 151.341 96.1875C151.341 94.5338 152.682 93.1932 154.335 93.1932C155.989 93.1932 157.33 94.5338 157.33 96.1875ZM162.642 99.1818C164.296 99.1818 165.636 97.8412 165.636 96.1875C165.636 94.5338 164.296 93.1932 162.642 93.1932C160.988 93.1932 159.648 94.5338 159.648 96.1875C159.648 97.8412 160.988 99.1818 162.642 99.1818ZM173.943 96.1875C173.943 97.8412 172.603 99.1818 170.949 99.1818C169.295 99.1818 167.955 97.8412 167.955 96.1875C167.955 94.5338 169.295 93.1932 170.949 93.1932C172.603 93.1932 173.943 94.5338 173.943 96.1875ZM179.256 99.1818C180.909 99.1818 182.25 97.8412 182.25 96.1875C182.25 94.5338 180.909 93.1932 179.256 93.1932C177.602 93.1932 176.261 94.5338 176.261 96.1875C176.261 97.8412 177.602 99.1818 179.256 99.1818ZM115.796 104.494C115.796 106.148 114.455 107.489 112.801 107.489C111.147 107.489 109.807 106.148 109.807 104.494C109.807 102.841 111.147 101.5 112.801 101.5C114.455 101.5 115.796 102.841 115.796 104.494ZM121.108 107.489C122.762 107.489 124.102 106.148 124.102 104.494C124.102 102.841 122.762 101.5 121.108 101.5C119.454 101.5 118.114 102.841 118.114 104.494C118.114 106.148 119.454 107.489 121.108 107.489ZM132.409 104.494C132.409 106.148 131.069 107.489 129.415 107.489C127.761 107.489 126.421 106.148 126.421 104.494C126.421 102.841 127.761 101.5 129.415 101.5C131.069 101.5 132.409 102.841 132.409 104.494ZM137.722 107.489C139.375 107.489 140.716 106.148 140.716 104.494C140.716 102.841 139.375 101.5 137.722 101.5C136.068 101.5 134.727 102.841 134.727 104.494C134.727 106.148 136.068 107.489 137.722 107.489ZM149.023 104.494C149.023 106.148 147.682 107.489 146.028 107.489C144.375 107.489 143.034 106.148 143.034 104.494C143.034 102.841 144.375 101.5 146.028 101.5C147.682 101.5 149.023 102.841 149.023 104.494ZM154.335 107.489C155.989 107.489 157.33 106.148 157.33 104.494C157.33 102.841 155.989 101.5 154.335 101.5C152.682 101.5 151.341 102.841 151.341 104.494C151.341 106.148 152.682 107.489 154.335 107.489ZM165.636 104.494C165.636 106.148 164.296 107.489 162.642 107.489C160.988 107.489 159.648 106.148 159.648 104.494C159.648 102.841 160.988 101.5 162.642 101.5C164.296 101.5 165.636 102.841 165.636 104.494ZM170.949 107.489C172.603 107.489 173.943 106.148 173.943 104.494C173.943 102.841 172.603 101.5 170.949 101.5C169.295 101.5 167.955 102.841 167.955 104.494C167.955 106.148 169.295 107.489 170.949 107.489ZM182.25 104.494C182.25 106.148 180.909 107.489 179.256 107.489C177.602 107.489 176.261 106.148 176.261 104.494C176.261 102.841 177.602 101.5 179.256 101.5C180.909 101.5 182.25 102.841 182.25 104.494ZM112.801 115.795C114.455 115.795 115.796 114.455 115.796 112.801C115.796 111.147 114.455 109.807 112.801 109.807C111.147 109.807 109.807 111.147 109.807 112.801C109.807 114.455 111.147 115.795 112.801 115.795ZM124.102 112.801C124.102 114.455 122.762 115.795 121.108 115.795C119.454 115.795 118.114 114.455 118.114 112.801C118.114 111.147 119.454 109.807 121.108 109.807C122.762 109.807 124.102 111.147 124.102 112.801ZM129.415 115.795C131.069 115.795 132.409 114.455 132.409 112.801C132.409 111.147 131.069 109.807 129.415 109.807C127.761 109.807 126.421 111.147 126.421 112.801C126.421 114.455 127.761 115.795 129.415 115.795ZM140.716 112.801C140.716 114.455 139.375 115.795 137.722 115.795C136.068 115.795 134.727 114.455 134.727 112.801C134.727 111.147 136.068 109.807 137.722 109.807C139.375 109.807 140.716 111.147 140.716 112.801ZM146.028 115.795C147.682 115.795 149.023 114.455 149.023 112.801C149.023 111.147 147.682 109.807 146.028 109.807C144.375 109.807 143.034 111.147 143.034 112.801C143.034 114.455 144.375 115.795 146.028 115.795ZM157.33 112.801C157.33 114.455 155.989 115.795 154.335 115.795C152.682 115.795 151.341 114.455 151.341 112.801C151.341 111.147 152.682 109.807 154.335 109.807C155.989 109.807 157.33 111.147 157.33 112.801ZM162.642 115.795C164.296 115.795 165.636 114.455 165.636 112.801C165.636 111.147 164.296 109.807 162.642 109.807C160.988 109.807 159.648 111.147 159.648 112.801C159.648 114.455 160.988 115.795 162.642 115.795ZM173.943 112.801C173.943 114.455 172.603 115.795 170.949 115.795C169.295 115.795 167.955 114.455 167.955 112.801C167.955 111.147 169.295 109.807 170.949 109.807C172.603 109.807 173.943 111.147 173.943 112.801ZM179.256 115.795C180.909 115.795 182.25 114.455 182.25 112.801C182.25 111.147 180.909 109.807 179.256 109.807C177.602 109.807 176.261 111.147 176.261 112.801C176.261 114.455 177.602 115.795 179.256 115.795ZM124.102 121.108C124.102 122.762 122.762 124.102 121.108 124.102C119.454 124.102 118.114 122.762 118.114 121.108C118.114 119.454 119.454 118.114 121.108 118.114C122.762 118.114 124.102 119.454 124.102 121.108ZM129.415 124.102C131.069 124.102 132.409 122.762 132.409 121.108C132.409 119.454 131.069 118.114 129.415 118.114C127.761 118.114 126.421 119.454 126.421 121.108C126.421 122.762 127.761 124.102 129.415 124.102ZM140.716 121.108C140.716 122.762 139.375 124.102 137.722 124.102C136.068 124.102 134.727 122.762 134.727 121.108C134.727 119.454 136.068 118.114 137.722 118.114C139.375 118.114 140.716 119.454 140.716 121.108ZM146.028 124.102C147.682 124.102 149.023 122.762 149.023 121.108C149.023 119.454 147.682 118.114 146.028 118.114C144.375 118.114 143.034 119.454 143.034 121.108C143.034 122.762 144.375 124.102 146.028 124.102ZM157.33 121.108C157.33 122.762 155.989 124.102 154.335 124.102C152.682 124.102 151.341 122.762 151.341 121.108C151.341 119.454 152.682 118.114 154.335 118.114C155.989 118.114 157.33 119.454 157.33 121.108ZM162.642 124.102C164.296 124.102 165.636 122.762 165.636 121.108C165.636 119.454 164.296 118.114 162.642 118.114C160.988 118.114 159.648 119.454 159.648 121.108C159.648 122.762 160.988 124.102 162.642 124.102ZM173.943 121.108C173.943 122.762 172.603 124.102 170.949 124.102C169.295 124.102 167.955 122.762 167.955 121.108C167.955 119.454 169.295 118.114 170.949 118.114C172.603 118.114 173.943 119.454 173.943 121.108ZM129.415 132.409C131.069 132.409 132.409 131.068 132.409 129.415C132.409 127.761 131.069 126.42 129.415 126.42C127.761 126.42 126.421 127.761 126.421 129.415C126.421 131.068 127.761 132.409 129.415 132.409ZM140.716 129.415C140.716 131.068 139.375 132.409 137.722 132.409C136.068 132.409 134.727 131.068 134.727 129.415C134.727 127.761 136.068 126.42 137.722 126.42C139.375 126.42 140.716 127.761 140.716 129.415ZM146.028 132.409C147.682 132.409 149.023 131.068 149.023 129.415C149.023 127.761 147.682 126.42 146.028 126.42C144.375 126.42 143.034 127.761 143.034 129.415C143.034 131.068 144.375 132.409 146.028 132.409ZM157.33 129.415C157.33 131.068 155.989 132.409 154.335 132.409C152.682 132.409 151.341 131.068 151.341 129.415C151.341 127.761 152.682 126.42 154.335 126.42C155.989 126.42 157.33 127.761 157.33 129.415ZM162.642 132.409C164.296 132.409 165.636 131.068 165.636 129.415C165.636 127.761 164.296 126.42 162.642 126.42C160.988 126.42 159.648 127.761 159.648 129.415C159.648 131.068 160.988 132.409 162.642 132.409Z" fill="#FCCC0A"/>
</svg>
