<svg width="36" height="36" viewBox="0 0 36 36" fill="none" xmlns="http://www.w3.org/2000/svg">
<path fill-rule="evenodd" clip-rule="evenodd" d="M29.9644 8.79289C30.7455 8.01184 30.7455 6.74551 29.9644 5.96446C29.1834 5.18342 27.9171 5.18342 27.136 5.96446L18.0502 15.0503L8.96444 5.96448C8.18339 5.18343 6.91706 5.18343 6.13601 5.96448C5.35496 6.74553 5.35496 8.01186 6.13601 8.79291L15.2218 17.8787L5.96445 27.136C5.1834 27.9171 5.1834 29.1834 5.96445 29.9645C6.7455 30.7455 8.01183 30.7455 8.79287 29.9645L18.0502 20.7071L27.3076 29.9645C28.0886 30.7455 29.355 30.7455 30.136 29.9645C30.9171 29.1834 30.9171 27.9171 30.136 27.1361L20.8787 17.8787L29.9644 8.79289Z" fill="white"/>
</svg>
