<svg width="36" height="36" viewBox="0 0 36 36" fill="none" xmlns="http://www.w3.org/2000/svg">
<path fill-rule="evenodd" clip-rule="evenodd" d="M15 21C18.866 21 22 17.866 22 14C22 10.134 18.866 7 15 7C11.134 7 8 10.134 8 14C8 17.866 11.134 21 15 21ZM15 24C20.5228 24 25 19.5228 25 14C25 8.47715 20.5228 4 15 4C9.47715 4 5 8.47715 5 14C5 19.5228 9.47715 24 15 24Z" fill="white"/>
<path fill-rule="evenodd" clip-rule="evenodd" d="M24.0607 22.9393C24.6465 22.3536 25.5962 22.3536 26.182 22.9393L32.0607 28.818C32.6465 29.4038 32.6465 30.3536 32.0607 30.9393C31.4749 31.5251 30.5251 31.5251 29.9394 30.9393L24.0607 25.0607C23.4749 24.4749 23.4749 23.5251 24.0607 22.9393Z" fill="white"/>
</svg>
