<svg width="36" height="36" viewBox="0 0 36 36" fill="none" xmlns="http://www.w3.org/2000/svg">
<path fill-rule="evenodd" clip-rule="evenodd" d="M32.9602 19.9038C34.0648 19.9038 34.9602 19.0084 34.9602 17.9038C34.9602 16.7992 34.0648 15.9038 32.9602 15.9038L20.1109 15.9038L20.1109 3.05457C20.1109 1.95 19.2155 1.05457 18.1109 1.05457C17.0064 1.05457 16.1109 1.95 16.1109 3.05457L16.1109 15.9038L3.01906 15.9038C1.91449 15.9038 1.01906 16.7992 1.01906 17.9038C1.01906 19.0084 1.91449 19.9038 3.01906 19.9038L16.1109 19.9038L16.1109 32.9957C16.1109 34.1003 17.0064 34.9957 18.1109 34.9957C19.2155 34.9957 20.1109 34.1003 20.1109 32.9957L20.1109 19.9038L32.9602 19.9038Z" fill="white"/>
</svg>
