<svg width="36" height="36" viewBox="0 0 36 36" fill="none" xmlns="http://www.w3.org/2000/svg">
<rect width="36" height="36" rx="18" fill="#FF6319"/>
<path fill-rule="evenodd" clip-rule="evenodd" d="M11.2824 11.2825C7.57244 14.9925 7.57244 21.0075 11.2824 24.7175C14.9924 28.4275 21.0075 28.4275 24.7174 24.7175C28.4274 21.0075 28.4274 14.9925 24.7174 11.2825C24.1317 10.6967 24.1317 9.74695 24.7174 9.16117C25.3032 8.57538 26.253 8.57538 26.8388 9.16117C31.7203 14.0427 31.7203 21.9573 26.8388 26.8388C21.9572 31.7204 14.0427 31.7204 9.1611 26.8388C4.27955 21.9573 4.27955 14.0427 9.1611 9.16117C9.74689 8.57538 10.6966 8.57538 11.2824 9.16117C11.8682 9.74695 11.8682 10.6967 11.2824 11.2825Z" fill="#11111C"/>
<path fill-rule="evenodd" clip-rule="evenodd" d="M18.5 4C19.3284 4 20 4.67157 20 5.5L20 16.5C20 17.3284 19.3284 18 18.5 18C17.6716 18 17 17.3284 17 16.5L17 5.5C17 4.67157 17.6716 4 18.5 4Z" fill="#11111C"/>
</svg>
