<svg width="36" height="36" viewBox="0 0 36 36" fill="none" xmlns="http://www.w3.org/2000/svg">
<path fill-rule="evenodd" clip-rule="evenodd" d="M11.2825 11.2825C7.57256 14.9925 7.57256 21.0075 11.2825 24.7175C14.9925 28.4275 21.0076 28.4275 24.7176 24.7175C28.4276 21.0075 28.4276 14.9925 24.7176 11.2825C24.1318 10.6967 24.1318 9.74695 24.7176 9.16117C25.3034 8.57538 26.2531 8.57538 26.8389 9.16117C31.7204 14.0427 31.7204 21.9573 26.8389 26.8388C21.9573 31.7204 14.0428 31.7204 9.16122 26.8388C4.27967 21.9573 4.27967 14.0427 9.16122 9.16117C9.74701 8.57538 10.6968 8.57538 11.2825 9.16117C11.8683 9.74695 11.8683 10.6967 11.2825 11.2825Z" fill="white"/>
<path fill-rule="evenodd" clip-rule="evenodd" d="M18.5 3.99998C19.3284 3.99998 20 4.67156 20 5.49998L20 16.5C20 17.3284 19.3284 18 18.5 18C17.6716 18 17 17.3284 17 16.5L17 5.49998C17 4.67156 17.6716 3.99998 18.5 3.99998Z" fill="white"/>
</svg>
